<svg xmlns="http://www.w3.org/2000/svg" xmlns:xlink="http://www.w3.org/1999/xlink" version="1.1" id="Capa_1" x="0px" y="0px" viewBox="0 0 512 512" style="enable-background:new 0 0 512 512;" xml:space="preserve" width="512" height="512" class=""><g><path style="fill:#000000" d="M45,451c-8.291,0-15-6.709-15-15V255c0-8.291,6.709-15,15-15s15,6.709,15,15v181  C60,444.291,53.291,451,45,451z" data-original="#3C3A41" class="" data-old_color="#020202"></path><path style="fill:#020202" d="M451,285v90c0,8.399,6.599,15,15,15s15-6.601,15-15v-69l-29.328-24.404  C451.41,282.72,451,283.786,451,285z" data-original="#2B292C" class="active-path" data-old_color="#050404"></path><path style="fill:#070707" d="M390.399,493.1L338.2,300l-19.799-72.9c-1.201-4.801-4.801-8.701-9.6-10.201L256,199.2l-36.099-11.7  c-3.9-1.5-8.101-1.201-12.001,0.899c-3.6,1.8-6.301,5.4-7.2,9.3L172.8,300l-52.2,193.1c-0.601,1.5-0.601,2.999-0.601,4.499h30.3  l3.3-11.699L256,374.7l101.4,111.2l3.3,11.699H391C391,496.099,391,494.599,390.399,493.1z M170.7,422.5L199.799,315l35.801,37.5  L170.7,422.5z M209.03,281.118l16.425-60.161l66.127,21.812l10.432,38.399L256,330.599L209.03,281.118z M276.4,352.5l34.801-37.5  L340.3,422.5L276.4,352.5z" data-original="#555A66" class="" data-old_color="#0B0B0B"></path><path style="fill:#000000" d="M338.2,300l-19.799-72.9c-1.201-4.801-4.801-8.701-9.6-10.201l-52.778-17.692v31.652l35.559,11.909  l10.432,38.399l-45.991,49.407v44.149L357.4,485.9l3.3,11.699H391c0-1.5,0-2.999-0.601-4.499L338.2,300z M276.4,352.5l34.801-37.5  L340.3,422.5L276.4,352.5z" data-original="#3C3A41" class="" data-old_color="#020202"></path><polygon style="fill:#090A0A" points="497,512 15,512 30,482 494.599,482 " data-original="#707789" class="" data-old_color="#1A1B1C"></polygon><path style="fill:#100F0F" d="M481,225v81l-30-10.2l-195-65.1l-150.399-49.801c-3.9-1.199-6.901-3.9-8.701-7.8  c-1.8-3.6-2.1-8.099-0.3-11.699l21-53.101c2.701-7.5,11.1-11.4,18.6-8.699L256,139.2l214.799,71.699  C476.8,212.699,481,218.399,481,225z" data-original="#FF5842" class="" data-old_color="#262222"></path><path style="fill:#000000" d="M133.412,75.529L49.059,30L2.692,36.702C1.047,39.137,0,41.946,0,45v130.212l20.118,10.082  l114.706-59.647L150,105L133.412,75.529z" data-original="#3C3A41" class="" data-old_color="#020202"></path><path style="fill:#020202" d="M481,225v81l-30-10.2l-195-65.1v-91.5l214.799,71.699C476.8,212.699,481,218.399,481,225z" data-original="#FD3018" class="" data-old_color="#0C0C0C"></path><g>
	<path style="fill:#070707" d="M135,0H75c-2.329,0-4.629,0.542-6.709,1.582l-60,30c-2.351,1.179-4.182,3.023-5.599,5.12L150,105V15   C150,6.709,143.291,0,135,0z" data-original="#555A66" class="" data-old_color="#0B0B0B"></path>
	<path style="fill:#070707" d="M0,255c0,8.291,6.709,15,15,15h60c6.123,0,11.631-3.721,13.916-9.419l59.941-149.839   c0.762-1.816,1.143-3.779,1.143-5.742L0,175.212V255z" data-original="#555A66" class="" data-old_color="#0B0B0B"></path>
	<path style="fill:#070707" d="M497,512h-61c-8.291,0-15-6.709-15-15V375c0-8.291,6.709-15,15-15h61c8.291,0,15,6.709,15,15v122   C512,505.291,505.291,512,497,512z" data-original="#555A66" class="" data-old_color="#0B0B0B"></path>
</g><path style="fill:#090A0A" d="M75,512H15c-8.291,0-15-6.709-15-15v-61c0-8.291,6.709-15,15-15h60c8.291,0,15,6.709,15,15v61  C90,505.291,83.291,512,75,512z" data-original="#707789" class="" data-old_color="#1A1B1C"></path><polygon style="fill:#070707" points="497,512 256,512 256,482 494.599,482 " data-original="#555A66" class="" data-old_color="#0B0B0B"></polygon></g> </svg>